<?xml version="1.0" encoding="UTF-8" standalone="no"?><!DOCTYPE svg PUBLIC "-//W3C//DTD SVG 1.1//EN" "http://www.w3.org/Graphics/SVG/1.1/DTD/svg11.dtd"><svg width="100%" height="100%" viewBox="0 0 1081 450" version="1.1" xmlns="http://www.w3.org/2000/svg" xmlns:xlink="http://www.w3.org/1999/xlink" xml:space="preserve" style="fill-rule:evenodd;clip-rule:evenodd;stroke-linejoin:round;stroke-miterlimit:1.41421;"><rect id="Artboard1" x="0.408" y="0" width="1080" height="450" style="fill:none;"/><rect x="0.408" y="0" width="1080" height="450" style="fill:#414a6b;"/><clipPath id="_clip1"><rect x="0.408" y="0" width="1080" height="450"/></clipPath><g clip-path="url(#_clip1)"><g><g><g><g><path d="M485.928,500.794l52.176,-57.016l41.238,107.579l-52.176,57.016l-41.238,-107.579Z" style="fill:#ffb199;"/></g><g><path d="M706.698,441.639l52.176,-57.016l41.238,107.579l-52.176,57.016l-41.238,-107.579Z" style="fill:#ffb199;"/><path d="M706.698,441.639l111.703,-30.48l41.237,107.579l-111.702,30.48l-41.238,-107.579Zm15.69,7.909l88.784,-24.226l32.776,85.507l-88.784,24.226l-32.776,-85.507Z" style="fill:#ffb199;"/></g><g><path d="M927.468,382.484l52.176,-57.016l41.238,107.579l-52.176,57.016l-41.238,-107.579Z" style="fill:#ffb199;"/><path d="M927.468,382.484l111.703,-30.48l41.237,107.579l-111.702,30.48l-41.238,-107.579Zm15.69,7.909l88.784,-24.226l32.776,85.507l-88.784,24.226l-32.776,-85.507Z" style="fill:#ffb199;"/></g></g></g><g><g><g><path d="M44.388,159.641l52.176,-57.016l41.238,107.579l-52.176,57.016l-41.238,-107.579Z" style="fill:#ffb199;"/><path d="M44.388,159.641l111.703,-30.479l41.237,107.579l-111.702,30.479l-41.238,-107.579Zm15.69,7.91l88.784,-24.226l32.776,85.506l-88.784,24.226l-32.776,-85.506Z" style="fill:#ffb199;"/></g><g><path d="M44.388,389.661l52.176,-57.016l41.238,107.579l-52.176,57.016l-41.238,-107.579Z" style="fill:#ffb199;"/><path d="M44.388,389.661l111.703,-30.479l41.237,107.579l-111.702,30.479l-41.238,-107.579Zm15.69,7.91l88.784,-24.226l32.776,85.506l-88.784,24.226l-32.776,-85.506Z" style="fill:#ffb199;"/></g><g><path d="M265.158,100.486l52.176,-57.016l41.238,107.579l-52.176,57.016l-41.238,-107.579Z" style="fill:#ffb199;"/><path d="M265.158,100.486l111.703,-30.479l41.237,107.579l-111.702,30.479l-41.238,-107.579Zm15.69,7.91l88.784,-24.226l32.776,85.506l-88.784,24.226l-32.776,-85.506Z" style="fill:#ffb199;"/></g><g><path d="M265.158,330.506l52.176,-57.016l41.238,107.579l-52.176,57.016l-41.238,-107.579Z" style="fill:#ffb199;"/><path d="M265.158,330.506l111.703,-30.479l41.237,107.579l-111.702,30.479l-41.238,-107.579Zm15.69,7.91l88.784,-24.226l32.776,85.506l-88.784,24.226l-32.776,-85.506Z" style="fill:#ffb199;"/></g><g><path d="M485.928,41.331l52.176,-57.016l41.238,107.579l-52.176,57.016l-41.238,-107.579Z" style="fill:#ffb199;"/><path d="M485.928,41.331l111.703,-30.479l41.237,107.578l-111.702,30.48l-41.238,-107.579Zm15.69,7.909l88.784,-24.225l32.776,85.506l-88.784,24.226l-32.776,-85.507Z" style="fill:#ffb199;"/></g><g><path d="M485.928,271.351l52.176,-57.016l41.238,107.579l-52.176,57.016l-41.238,-107.579Z" style="fill:#ffb199;"/><path d="M485.928,271.351l111.703,-30.48l41.237,107.579l-111.702,30.48l-41.238,-107.579Zm15.69,7.909l88.784,-24.225l32.776,85.506l-88.784,24.226l-32.776,-85.507Z" style="fill:#ffb199;"/></g><g><path d="M706.698,-17.824l52.176,-57.016l41.238,107.579l-52.176,57.016l-41.238,-107.579Z" style="fill:#ffb199;"/><path d="M706.698,-17.824l111.703,-30.48l41.237,107.579l-111.702,30.48l-41.238,-107.579Zm15.69,7.909l88.784,-24.226l32.776,85.507l-88.784,24.226l-32.776,-85.507Z" style="fill:#ffb199;"/></g><g><path d="M706.698,212.196l52.176,-57.016l41.238,107.579l-52.176,57.016l-41.238,-107.579Z" style="fill:#ffb199;"/><path d="M706.698,212.196l111.703,-30.48l41.237,107.579l-111.702,30.48l-41.238,-107.579Zm15.69,7.909l88.784,-24.226l32.776,85.507l-88.784,24.226l-32.776,-85.507Z" style="fill:#ffb199;"/></g><g><path d="M927.468,-76.979l52.176,-57.016l41.238,107.579l-52.176,57.016l-41.238,-107.579Z" style="fill:#ffb199;"/><path d="M927.468,-76.979l111.703,-30.48l41.237,107.579l-111.702,30.48l-41.238,-107.579Zm15.69,7.909l88.784,-24.226l32.776,85.507l-88.784,24.226l-32.776,-85.507Z" style="fill:#ffb199;"/></g><g><path d="M927.468,153.041l52.176,-57.016l41.238,107.579l-52.176,57.016l-41.238,-107.579Z" style="fill:#ffb199;"/><path d="M927.468,153.041l111.703,-30.48l41.237,107.579l-111.702,30.48l-41.238,-107.579Zm15.69,7.909l88.784,-24.226l32.776,85.507l-88.784,24.226l-32.776,-85.507Z" style="fill:#ffb199;"/></g></g></g></g></g></svg>