<?xml version="1.0" encoding="UTF-8" standalone="no"?><!DOCTYPE svg PUBLIC "-//W3C//DTD SVG 1.1//EN" "http://www.w3.org/Graphics/SVG/1.1/DTD/svg11.dtd"><svg width="100%" height="100%" viewBox="0 0 380 100" version="1.1" xmlns="http://www.w3.org/2000/svg" xmlns:xlink="http://www.w3.org/1999/xlink" xml:space="preserve" style="fill-rule:evenodd;clip-rule:evenodd;stroke-linejoin:round;stroke-miterlimit:1.41421;"><rect id="Artboard2" x="0" y="0.153" width="380" height="99.534" style="fill:none;"/><g><g><g><path d="M5.513,23.414l37.522,-18.761l0,62.537l-37.522,18.761l0,-62.537Z" style="fill:#5ab190;"/><path d="M5.513,23.414l62.537,6.254l0,62.536l-62.537,-6.253l0,-62.537Zm6.416,7.057l49.705,4.971l0,49.705l-49.705,-4.97l0,-49.706Z" style="fill:#414a6b;"/></g></g><g><g><path d="M103.009,56.975c-1.377,4.259 -4.173,6.649 -8.131,6.649c-5.55,0 -9.68,-4.042 -9.68,-11.907c0,-7.865 4.13,-11.906 9.68,-11.906c3.958,0 6.754,2.39 8.131,6.648l3.656,-1.086c-1.333,-5.345 -5.506,-9.212 -11.787,-9.212c-7.012,0 -13.594,5.171 -13.594,15.556c0,10.386 6.582,15.557 13.594,15.557c6.281,0 10.454,-3.868 11.787,-9.212l-3.656,-1.087Z" style="fill-rule:nonzero;"/><rect x="112.387" y="36.161" width="3.614" height="30.765" style="fill-rule:nonzero;"/><path d="M125.462,60.625c0,-2.477 2.065,-3.867 5.765,-3.867l3.871,0l0,0.521c0,4.954 -3.269,6.692 -6.065,6.692c-2.28,0 -3.571,-1.26 -3.571,-3.346Zm13.25,-7.691c0,-5.823 -3.571,-8.256 -8.346,-8.256c-4.087,0 -7.098,2.303 -7.7,5.996l3.183,0.739c0.473,-2.173 2.28,-3.433 4.517,-3.433c2.624,0 4.732,1.13 4.732,4.519l0,0.956l-3.527,0c-5.937,0 -9.809,2.477 -9.809,7.17c0,4.693 3.098,6.649 6.711,6.649c3.227,0 5.421,-1.434 6.798,-3.433l0.602,3.085l2.839,0l0,-13.992Z" style="fill-rule:nonzero;"/><path d="M157.762,45.33c-0.645,-0.348 -1.764,-0.652 -2.968,-0.652c-2.41,0 -5.077,1.651 -6.367,4.084l0,-3.737l-3.614,0l0,21.901l3.614,0l0,-8.3c0,-7.126 3.097,-10.646 6.065,-10.646c0.904,0 1.764,0.217 2.539,0.609l0.731,-3.259Z" style="fill-rule:nonzero;"/><path d="M162.189,45.025l0,21.901l3.613,0l0,-21.901l-3.613,0Zm-0.904,-6.083c0,1.521 1.162,2.694 2.71,2.694c1.549,0 2.711,-1.173 2.711,-2.694c0,-1.565 -1.162,-2.781 -2.711,-2.781c-1.548,0 -2.71,1.216 -2.71,2.781Z" style="fill-rule:nonzero;"/><path d="M179.043,44.678c-3.915,0 -6.367,2.65 -6.367,6.04c0,7.126 9.981,5.736 9.981,9.82c0,2.303 -1.291,3.433 -3.485,3.433c-2.409,0 -4.087,-1.955 -5.033,-4.302l-3.055,1.695c1.119,2.955 3.657,5.91 8.088,5.91c4.388,0 7.184,-2.564 7.184,-6.953c0,-6.431 -10.066,-5.605 -10.066,-9.56c0,-1.781 1.161,-2.781 2.624,-2.781c1.506,0 2.538,0.609 3.958,2.173l2.452,-2.129c-1.506,-2.173 -3.614,-3.346 -6.281,-3.346Z" style="fill-rule:nonzero;"/><path d="M191.811,45.025l0,21.901l3.613,0l0,-21.901l-3.613,0Zm-0.904,-6.083c0,1.521 1.162,2.694 2.711,2.694c1.548,0 2.71,-1.173 2.71,-2.694c0,-1.565 -1.162,-2.781 -2.71,-2.781c-1.549,0 -2.711,1.216 -2.711,2.781Z" style="fill-rule:nonzero;"/><path d="M202.689,52.065c0,1.955 0.602,3.563 1.591,4.78c-1.591,0.825 -2.624,2.173 -2.624,4.041c0,1.564 0.559,2.694 1.463,3.476c-1.162,1 -2.022,2.564 -2.022,4.563c0,4.563 3.7,7.213 9.206,7.213c4.947,0 9.163,-2.172 9.163,-7.561c0,-3.997 -2.753,-6.04 -6.797,-6.04l-5.119,0c-1.592,0 -2.452,-0.651 -2.452,-1.825c0,-0.956 0.43,-1.651 1.419,-2.129c1.076,0.521 2.366,0.782 3.743,0.782c4.259,0 7.571,-2.737 7.571,-7.3c0,-1.521 -0.387,-2.868 -1.075,-3.954l2.925,-1.652l-1.634,-2.998l-3.872,2.216c-1.162,-0.608 -2.495,-0.999 -3.915,-0.999c-4.259,0 -7.571,2.868 -7.571,7.387Zm9.421,13.601c2.108,0 3.657,0.826 3.657,3.259c0,2.26 -1.678,3.998 -5.464,3.998c-3.7,0 -5.592,-1.695 -5.592,-4.128c0,-1.304 0.387,-2.39 1.419,-3.216c0.473,0.044 1.033,0.087 1.592,0.087l4.388,0Zm-5.894,-13.601c0,-2.738 1.85,-4.259 4.044,-4.259c2.194,0 4.044,1.521 4.044,4.259c0,2.737 -1.85,4.171 -4.044,4.171c-2.194,0 -4.044,-1.434 -4.044,-4.171Z" style="fill-rule:nonzero;"/><path d="M242.094,51.717c0,-4.649 -2.409,-7.039 -6.366,-7.039c-3.356,0 -6.152,1.781 -7.529,4.432l0,-12.949l-3.613,0l0,30.765l3.613,0l0,-9.299c0,-6.04 3.356,-9.647 6.539,-9.647c2.409,0 3.743,1.478 3.743,4.476l0,14.47l3.613,0l0,-15.209Z" style="fill-rule:nonzero;"/><path d="M246.479,48.328l3.742,0l0,11.732c0,4.954 2.624,7.214 6.281,7.214c1.248,0 2.495,-0.217 3.528,-0.826l-0.861,-3.172c-0.774,0.521 -1.505,0.695 -2.452,0.695c-1.807,0 -2.882,-1.26 -2.882,-3.606l0,-12.037l5.678,0l0,-3.303l-5.678,0l0,-8.864l-3.614,2.303l0,6.561l-3.742,0l0,3.303Z" style="fill-rule:nonzero;"/><path d="M271.687,44.678c-3.915,0 -6.367,2.65 -6.367,6.04c0,7.126 9.98,5.736 9.98,9.82c0,2.303 -1.29,3.433 -3.484,3.433c-2.409,0 -4.087,-1.955 -5.034,-4.302l-3.054,1.695c1.119,2.955 3.657,5.91 8.088,5.91c4.388,0 7.184,-2.564 7.184,-6.953c0,-6.431 -10.067,-5.605 -10.067,-9.56c0,-1.781 1.162,-2.781 2.625,-2.781c1.505,0 2.538,0.609 3.957,2.173l2.453,-2.129c-1.506,-2.173 -3.614,-3.346 -6.281,-3.346Z" style="fill-rule:nonzero;"/></g></g></g><path d="M303.654,50.756c3.423,-0.594 5.613,-2.784 5.613,-6.891c0,-5.202 -3.924,-7.712 -10.632,-7.712l-6.617,0l0,31.122l8.397,0c6.571,0 10.404,-3.012 10.404,-8.488c0,-5.43 -3.286,-7.803 -7.165,-8.031Zm-10.039,-13.143l5.202,0c5.659,0 8.807,1.917 8.807,6.298c0,3.879 -2.646,6.251 -6.616,6.251l-7.393,0l0,-12.549Zm6.845,28.201l-6.845,0l0,-14.283l7.621,0c4.609,0 7.94,2.282 7.94,7.256c0,4.746 -3.286,7.027 -8.716,7.027Z" style="fill-rule:nonzero;"/><path d="M320.245,67.275l0,-31.142l-1.552,0.02l0,31.122l1.552,0Z" style="fill-rule:nonzero;"/><path d="M337.893,44.655c-5.386,0 -8.893,4.176 -8.893,11.357c0,7.014 3.34,11.231 8.852,11.231c5.386,0 8.851,-4.175 8.851,-11.356c0,-7.265 -3.382,-11.232 -8.81,-11.232Zm0,1.295c4.593,0 7.349,3.465 7.349,9.937c0,6.597 -2.881,10.062 -7.39,10.062c-4.593,0 -7.349,-3.549 -7.349,-9.937c0,-6.639 2.881,-10.062 7.39,-10.062Z" style="fill-rule:nonzero;"/><path d="M364.553,46.052l3.447,-1.899l0.663,1.204l-3.016,1.662c1.032,1.097 1.653,2.985 1.619,4.887c-0.022,1.206 -0.097,2.025 -0.454,2.931c-1.503,3.806 -6.347,4.931 -9.921,3.68c-0.565,0.32 -1.117,0.723 -1.493,1.253c-1.933,2.722 1.071,4.175 3.33,4.175l3.591,0c2.588,0 3.857,0.326 4.947,1.294c2.082,1.849 2.124,6.362 -0.506,8.325c-3.893,2.905 -10.014,1.982 -12.714,0c-3.642,-2.676 -2.87,-7.708 1.18,-9.164c-2.182,-1.549 -2.055,-3.484 -1.18,-4.782c0.439,-0.649 1.087,-1.157 1.759,-1.56c-5.168,-2.628 -4.914,-11.088 0.8,-12.879c1.881,-0.59 3.103,-0.67 5.21,-0.318c0.726,0.121 1.552,0.284 2.738,1.191Zm-5.95,19.187c-0.644,0.029 -1.591,-0.089 -1.603,-0.086c-4.533,1.028 -4.789,5.438 -1.967,7.384c2.551,1.759 7.702,2.097 10.714,0.093c2.085,-1.387 2.256,-4.863 0.538,-6.458c-1.001,-0.929 -2.04,-0.933 -4.092,-0.933c0,0 -3.472,-0.005 -3.59,0Zm1.21,-19.331c1.671,0 3.401,0.438 4.578,1.696c2.042,2.182 2.076,6.545 -0.115,8.638c-1.2,1.145 -2.894,1.521 -4.504,1.524c-1.955,0.003 -4,-0.664 -5.16,-2.329c-1.765,-2.532 -1.336,-6.852 1.38,-8.567c1.135,-0.717 2.498,-0.962 3.821,-0.962Z"/></svg>