<svg width="203" height="26" viewBox="0 0 203 26" fill="none" xmlns="http://www.w3.org/2000/svg">
<path fill-rule="evenodd" clip-rule="evenodd" d="M43.8858 2.92004L46.0887 2.01761C46.1238 2.00307 46.1619 1.9974 46.1996 2.0011C46.2374 2.0048 46.2736 2.01775 46.3052 2.0388C46.3367 2.05985 46.3625 2.08834 46.3803 2.12175C46.3981 2.15516 46.4074 2.19244 46.4072 2.23027V20.2482C46.4072 20.3094 46.3829 20.3682 46.3394 20.4114C46.296 20.4547 46.2371 20.4791 46.1757 20.4791H43.8297C43.7994 20.4791 43.7694 20.4731 43.7413 20.4615C43.7133 20.4498 43.6879 20.4328 43.6665 20.4114C43.6451 20.3899 43.6282 20.3644 43.6167 20.3364C43.6052 20.3084 43.5994 20.2785 43.5996 20.2482V3.34677C43.5994 3.25534 43.6266 3.16592 43.6775 3.08992C43.7285 3.01392 43.801 2.95478 43.8858 2.92004ZM28.9988 14.0025C28.9988 10.1396 31.9355 7.1846 35.8614 7.1846C38.3253 7.1846 40.4735 8.42003 41.5524 10.3312C41.5817 10.384 41.5888 10.4461 41.5722 10.504C41.5556 10.5619 41.5168 10.611 41.4641 10.6404L39.452 11.8059C39.426 11.8213 39.3973 11.8314 39.3674 11.8356C39.3375 11.8398 39.3071 11.8381 39.2779 11.8306C39.2487 11.823 39.2212 11.8098 39.1972 11.7916C39.1731 11.7735 39.1529 11.7508 39.1377 11.7248C38.5245 10.6236 37.3066 9.93248 35.8362 9.93248C33.5477 9.93248 31.8064 11.6688 31.8064 14.0025C31.8064 16.3363 33.5477 18.0726 35.8362 18.0726C37.3094 18.0726 38.5273 17.3548 39.184 16.2705C39.2167 16.2194 39.2679 16.1828 39.327 16.1685C39.3861 16.1541 39.4485 16.1631 39.5011 16.1936L41.5118 17.3367C41.5382 17.3515 41.5614 17.3714 41.58 17.3952C41.5987 17.419 41.6125 17.4462 41.6205 17.4753C41.6286 17.5045 41.6309 17.5349 41.6271 17.5649C41.6234 17.5948 41.6137 17.6238 41.5988 17.6501C40.4763 19.5836 38.3253 20.8205 35.8614 20.8205C31.9355 20.8205 28.9988 17.8389 28.9988 14.0025ZM62.7592 20.2482V7.75125C62.7592 7.69026 62.735 7.63175 62.6919 7.5885C62.6488 7.54525 62.5903 7.52076 62.5291 7.52039H60.1831C60.1217 7.52039 60.0628 7.54471 60.0194 7.58801C59.976 7.6313 59.9516 7.69002 59.9516 7.75125V9.36164C58.9638 8.01428 57.4302 7.1846 55.4027 7.1846C51.8668 7.1846 48.9287 10.1396 48.9287 14.0025C48.9287 17.8389 51.8668 20.8205 55.4027 20.8205C57.426 20.8205 58.9694 19.9908 59.9516 18.6169V20.2482C59.9516 20.3095 59.976 20.3682 60.0194 20.4115C60.0628 20.4548 60.1217 20.4791 60.1831 20.4791H62.5291C62.5903 20.4787 62.6488 20.4542 62.6919 20.411C62.735 20.3677 62.7592 20.3092 62.7592 20.2482ZM55.8461 9.85413C58.1851 9.85413 59.953 11.5904 59.953 14.0025H59.9516C59.9516 16.4132 58.178 18.1495 55.8447 18.1495C53.5113 18.1495 51.7377 16.4146 51.7377 14.0025C51.7377 11.5904 53.5071 9.85413 55.8461 9.85413ZM72.6159 7.52317V10.078C72.6163 10.1085 72.6106 10.1387 72.5991 10.167C72.5876 10.1952 72.5706 10.2209 72.549 10.2425C72.5275 10.2642 72.5018 10.2813 72.4735 10.2929C72.4453 10.3045 72.415 10.3104 72.3844 10.3102C70.594 10.2655 68.6128 11.1679 68.6128 13.948V20.244C68.6128 20.3052 68.5884 20.364 68.545 20.4073C68.5016 20.4506 68.4427 20.4749 68.3813 20.4749H66.0353C66.005 20.4749 65.9749 20.4689 65.9469 20.4573C65.9189 20.4457 65.8935 20.4286 65.8721 20.4072C65.8507 20.3857 65.8338 20.3603 65.8223 20.3323C65.8108 20.3043 65.805 20.2743 65.8052 20.244V7.75123C65.805 7.72098 65.8108 7.69099 65.8223 7.66299C65.8338 7.63499 65.8507 7.60953 65.8721 7.58807C65.8935 7.56662 65.9189 7.54959 65.9469 7.53797C65.9749 7.52635 66.005 7.52037 66.0353 7.52037H68.3841C68.4455 7.52037 68.5044 7.5447 68.5478 7.58799C68.5912 7.63128 68.6156 7.69 68.6156 7.75123V9.69881C69.3579 8.01986 70.8297 7.35248 72.383 7.29231C72.4136 7.29194 72.4439 7.29765 72.4722 7.3091C72.5006 7.32055 72.5263 7.33752 72.548 7.35901C72.5697 7.38051 72.5869 7.40609 72.5985 7.43428C72.6102 7.46246 72.6161 7.49268 72.6159 7.52317ZM75.1707 2.55475C74.8357 2.87957 74.641 3.32188 74.6279 3.78764C74.6212 4.02675 74.6626 4.26478 74.7498 4.48765C74.8369 4.71052 74.968 4.91371 75.1352 5.08521C75.3024 5.2567 75.5025 5.39302 75.7234 5.48611C75.9444 5.57919 76.1819 5.62715 76.4218 5.62715C76.6617 5.62715 76.8991 5.57919 77.1201 5.48611C77.3411 5.39302 77.5411 5.2567 77.7084 5.08521C77.8756 4.91371 78.0067 4.71052 78.0938 4.48765C78.1809 4.26478 78.2224 4.02675 78.2157 3.78764C78.2026 3.32188 78.0079 2.87957 77.6729 2.55475C77.3379 2.22992 76.889 2.04819 76.4218 2.04819C75.9545 2.04819 75.5057 2.22992 75.1707 2.55475ZM77.5941 7.5163H75.2481C75.2174 7.51648 75.1871 7.52273 75.1589 7.53467C75.1307 7.54662 75.1052 7.56403 75.0838 7.5859C75.0624 7.60776 75.0455 7.63364 75.0342 7.66205C75.0229 7.69045 75.0174 7.72081 75.018 7.75136V20.2483C75.018 20.3093 75.0422 20.3678 75.0853 20.4111C75.1284 20.4543 75.1869 20.4788 75.2481 20.4792H77.5941C77.6555 20.4792 77.7144 20.4549 77.7578 20.4116C77.8012 20.3683 77.8256 20.3096 77.8256 20.2483V7.74716C77.8256 7.68593 77.8012 7.62721 77.7578 7.58392C77.7144 7.54063 77.6555 7.5163 77.5941 7.5163ZM90.6024 16.8274C90.6024 19.4199 88.342 20.8205 85.533 20.8205C83.0242 20.8205 81.1931 19.7334 80.3204 17.9789C80.2954 17.9265 80.2913 17.8667 80.3087 17.8114C80.3261 17.7561 80.3639 17.7095 80.4144 17.6808L82.4181 16.5196C82.4457 16.5035 82.4763 16.4934 82.508 16.4898C82.5398 16.4862 82.5719 16.4893 82.6024 16.4988C82.6329 16.5082 82.661 16.5239 82.6851 16.5449C82.7092 16.5658 82.7286 16.5915 82.7422 16.6203C83.208 17.6459 84.2014 18.2531 85.533 18.2531C86.7818 18.2531 87.7429 17.8333 87.7429 16.8022C87.7429 15.8481 86.5471 15.5101 85.1445 15.1137C83.1551 14.5514 80.7498 13.8715 80.7498 11.1497C80.7498 8.71384 82.8544 7.1846 85.5077 7.1846C87.5535 7.1846 89.2653 8.09123 90.204 9.67784C90.2191 9.70443 90.2288 9.73376 90.2324 9.76411C90.2361 9.79447 90.2337 9.82524 90.2253 9.85466C90.217 9.88408 90.2029 9.91155 90.1838 9.93548C90.1647 9.9594 90.141 9.97931 90.1142 9.99404L88.1596 11.0854C88.1339 11.1004 88.1054 11.1102 88.0758 11.1141C88.0462 11.1181 88.0162 11.1162 87.9873 11.1085C87.9585 11.1009 87.9315 11.0876 87.9078 11.0694C87.8842 11.0513 87.8643 11.0286 87.8495 11.0028C87.3584 10.1298 86.5011 9.72401 85.5077 9.72401C84.5143 9.72401 83.6093 10.1647 83.6093 11.098C83.6093 12.0704 84.7978 12.3999 86.1949 12.7873C88.1867 13.3395 90.6024 14.0092 90.6024 16.8274ZM93.0618 2.79451C92.8646 3.08838 92.7592 3.43395 92.7589 3.78754C92.7593 4.26178 92.9483 4.71652 93.2845 5.05199C93.6206 5.38746 94.0765 5.57628 94.5521 5.57702C94.9067 5.57702 95.2533 5.47219 95.5482 5.27577C95.843 5.07936 96.0729 4.80018 96.2086 4.47353C96.3444 4.14688 96.38 3.78743 96.3109 3.44061C96.2418 3.0938 96.0712 2.77519 95.8206 2.52507C95.5699 2.27494 95.2505 2.10453 94.9028 2.03538C94.555 1.96623 94.1945 2.00144 93.8668 2.13656C93.5392 2.27169 93.259 2.50065 93.0618 2.79451ZM95.8888 7.58382C95.8454 7.54053 95.7865 7.51621 95.7251 7.51621H93.3791C93.3484 7.5162 93.318 7.52231 93.2897 7.53419C93.2614 7.54607 93.2358 7.56348 93.2144 7.58538C93.1929 7.60728 93.1761 7.63324 93.1649 7.66173C93.1536 7.69022 93.1482 7.72066 93.149 7.75126V20.2482C93.1488 20.2785 93.1546 20.3085 93.1661 20.3365C93.1776 20.3645 93.1945 20.3899 93.2159 20.4114C93.2373 20.4329 93.2627 20.4499 93.2907 20.4615C93.3187 20.4731 93.3488 20.4791 93.3791 20.4791H95.7251C95.7865 20.4791 95.8454 20.4548 95.8888 20.4115C95.9322 20.3682 95.9566 20.3095 95.9566 20.2482V7.74706C95.9566 7.68583 95.9322 7.62712 95.8888 7.58382ZM111.937 7.51617C111.998 7.51617 112.057 7.5405 112.101 7.58379C112.144 7.62708 112.168 7.6858 112.168 7.74703V19.8816C112.168 24.0566 108.892 26 105.487 26C102.72 26 100.562 25.0052 99.4351 23.0619C99.4053 23.0089 99.3977 22.9464 99.414 22.8879C99.4303 22.8295 99.4692 22.7798 99.5221 22.7498L101.538 21.583C101.564 21.5677 101.593 21.5577 101.623 21.5535C101.653 21.5494 101.684 21.5512 101.713 21.5589C101.742 21.5666 101.769 21.5799 101.793 21.5982C101.817 21.6166 101.838 21.6394 101.853 21.6655C102.438 22.6869 103.416 23.4662 105.539 23.4662C107.956 23.4662 109.413 22.144 109.413 19.8886V18.3076C108.43 19.7068 106.887 20.563 104.889 20.563C101.224 20.563 98.3379 17.5815 98.3379 13.8752C98.3379 10.1689 101.224 7.18738 104.889 7.18738C106.891 7.18738 108.425 8.04224 109.413 9.44277V7.75122C109.413 7.69 109.437 7.63128 109.48 7.58799C109.524 7.54469 109.583 7.52037 109.644 7.52037L111.937 7.51617ZM109.411 13.8682C109.411 11.5345 107.643 9.79815 105.278 9.79815C102.912 9.79815 101.144 11.5345 101.144 13.8682C101.144 16.2019 102.912 17.9383 105.278 17.9383C107.643 17.9383 109.413 16.2061 109.413 13.8724L109.411 13.8682ZM127.043 20.2482V12.5237C127.043 9.15457 124.963 7.18461 122.048 7.1916C120.278 7.1916 118.875 7.8394 118.018 9.18676V2.2373C118.018 2.19941 118.008 2.16214 117.99 2.12876C117.972 2.09538 117.947 2.06693 117.915 2.04591C117.883 2.0249 117.847 2.01196 117.809 2.00825C117.771 2.00454 117.733 2.01017 117.698 2.02463L115.495 2.92707C115.413 2.9622 115.342 3.02063 115.292 3.09519C115.242 3.16975 115.215 3.2572 115.215 3.34681V20.2468C115.214 20.2771 115.22 20.3071 115.232 20.3351C115.243 20.3631 115.26 20.3885 115.282 20.41C115.303 20.4315 115.328 20.4485 115.356 20.4601C115.384 20.4717 115.414 20.4777 115.445 20.4777H117.791C117.852 20.4777 117.911 20.4534 117.954 20.4101C117.998 20.3668 118.022 20.3081 118.022 20.2468V13.531C118.022 10.8867 119.477 9.79817 121.324 9.79817C123.092 9.79817 124.235 10.8349 124.235 12.8049V20.2482C124.235 20.2785 124.241 20.3085 124.252 20.3365C124.264 20.3645 124.281 20.3899 124.302 20.4114C124.324 20.4329 124.349 20.4499 124.377 20.4615C124.405 20.4731 124.435 20.4791 124.465 20.4791H126.811C126.873 20.4791 126.932 20.4548 126.975 20.4115C127.018 20.3682 127.043 20.3095 127.043 20.2482ZM133.949 10.2165V16.4384C133.949 18.0334 134.958 18.0712 136.929 17.9774C136.96 17.9759 136.992 17.9807 137.021 17.9916C137.05 18.0024 137.077 18.019 137.1 18.0405C137.122 18.0619 137.14 18.0877 137.153 18.1163C137.165 18.1449 137.172 18.1757 137.172 18.2069V20.2762C137.172 20.3332 137.151 20.3883 137.113 20.4308C137.075 20.4734 137.022 20.5005 136.966 20.5071C132.801 20.9618 131.14 19.7543 131.14 16.4384V10.2165H128.98C128.95 10.2167 128.92 10.2109 128.892 10.1994C128.864 10.188 128.838 10.1711 128.817 10.1498C128.795 10.1285 128.778 10.1031 128.767 10.0752C128.755 10.0472 128.749 10.0173 128.749 9.98703V7.74843C128.749 7.6872 128.773 7.62848 128.817 7.58519C128.86 7.5419 128.919 7.51757 128.98 7.51757H131.14V5.13766C131.141 5.04806 131.168 4.96061 131.217 4.88605C131.267 4.81149 131.338 4.75306 131.421 4.71793L133.623 3.81409C133.659 3.79962 133.697 3.794 133.734 3.79771C133.772 3.80142 133.809 3.81436 133.84 3.83537C133.872 3.85639 133.898 3.88484 133.916 3.91822C133.934 3.95159 133.943 3.98887 133.943 4.02676V7.52457H136.935C136.996 7.52457 137.055 7.54889 137.098 7.59219C137.142 7.63548 137.166 7.6942 137.166 7.75543V9.99403C137.166 10.0243 137.16 10.0542 137.149 10.0822C137.137 10.1101 137.12 10.1354 137.098 10.1568C137.077 10.1781 137.051 10.195 137.023 10.2064C136.995 10.2179 136.965 10.2237 136.935 10.2235L133.949 10.2165ZM143.929 20.8205C146.737 20.8205 148.999 19.4199 148.999 16.8274C148.999 14.0092 146.583 13.3395 144.59 12.7873C143.193 12.3999 142.004 12.0704 142.004 11.098C142.004 10.1647 142.888 9.72401 143.903 9.72401C144.896 9.72401 145.753 10.1298 146.245 11.0028C146.275 11.0547 146.324 11.0925 146.382 11.108C146.441 11.1235 146.503 11.1153 146.555 11.0854L148.509 9.99404C148.536 9.97931 148.56 9.9594 148.579 9.93548C148.598 9.91155 148.612 9.88408 148.62 9.85466C148.629 9.82524 148.631 9.79447 148.627 9.76411C148.624 9.73376 148.614 9.70443 148.599 9.67784C147.66 8.09123 145.948 7.1846 143.903 7.1846C141.249 7.1846 139.145 8.71384 139.145 11.1497C139.145 13.8715 141.55 14.5514 143.539 15.1137C144.942 15.5101 146.138 15.8481 146.138 16.8022C146.138 17.8333 145.177 18.2531 143.929 18.2531C142.598 18.2531 141.604 17.6459 141.137 16.6203C141.124 16.5915 141.104 16.5659 141.081 16.5449C141.057 16.524 141.029 16.5083 140.998 16.4988C140.968 16.4894 140.936 16.4863 140.904 16.4899C140.873 16.4934 140.842 16.5036 140.814 16.5196L138.809 17.6808C138.759 17.7095 138.721 17.7561 138.704 17.8114C138.686 17.8667 138.69 17.9265 138.715 17.9789C139.588 19.7334 141.419 20.8205 143.929 20.8205Z" fill="#1A1A1A"/>
<path d="M158.627 20.7H164.581C168.175 20.7 169.833 18.8459 169.833 16.314C169.833 13.7739 168.15 12.2465 166.525 12.1322V12.0015C168.02 11.6013 169.179 10.4415 169.179 8.35056C169.179 5.83493 167.538 3.97272 164.271 3.97272H158.627V20.7ZM160.154 19.3278V12.8836H164.646C166.892 12.8836 168.371 14.4028 168.371 16.314C168.371 18.0455 167.162 19.3278 164.581 19.3278H160.154ZM160.154 11.5278V5.34488H164.271C166.558 5.34488 167.717 6.57819 167.717 8.35056C167.717 10.1883 166.386 11.5278 164.41 11.5278H160.154Z" fill="#4C4C4C"/>
<path d="M174.67 3.97272H173.216V20.7H174.67V3.97272Z" fill="#4C4C4C"/>
<path d="M183.393 20.9614C186.644 20.9614 188.914 18.3069 188.914 14.4844C188.914 10.6375 186.644 7.98302 183.393 7.98302C180.142 7.98302 177.872 10.6375 177.872 14.4844C177.872 18.3069 180.142 20.9614 183.393 20.9614ZM183.393 19.63C180.788 19.63 179.334 17.2941 179.334 14.4844C179.334 11.6748 180.788 9.30617 183.393 9.30617C185.999 9.30617 187.452 11.6748 187.452 14.4844C187.452 17.2941 185.999 19.63 183.393 19.63Z" fill="#4C4C4C"/>
<path d="M196.892 25.6659C199.865 25.6659 202.07 24.2121 202.07 21.0267V8.15454H200.649V10.5476H200.502C199.988 9.42052 198.95 7.98302 196.647 7.98302C193.543 7.98302 191.461 10.5803 191.461 14.3946C191.461 18.2415 193.617 20.5693 196.623 20.5693C198.877 20.5693 199.979 19.2625 200.478 18.1109H200.608V20.9369C200.608 23.2728 199.114 24.3591 196.892 24.3591C194.744 24.3591 193.715 23.3218 193.184 22.3662L191.992 23.1503C192.727 24.5878 194.327 25.6659 196.892 25.6659ZM196.794 19.238C194.303 19.238 192.923 17.2451 192.923 14.3701C192.923 11.5441 194.278 9.30617 196.794 9.30617C199.253 9.30617 200.633 11.4297 200.633 14.3701C200.633 17.4003 199.212 19.238 196.794 19.238Z" fill="#4C4C4C"/>
<path d="M12.5198 11.6583H21.8636C21.8829 11.6585 21.902 11.6545 21.9196 11.6466C21.9373 11.6387 21.953 11.6271 21.9657 11.6125C21.9784 11.5979 21.9879 11.5807 21.9934 11.5621C21.9989 11.5435 22.0004 11.524 21.9977 11.5048C21.6711 9.0999 20.5695 6.8687 18.8613 5.15246C17.153 3.43621 14.9323 2.3294 12.5386 2.00133C12.5195 1.99861 12.5 2.00007 12.4815 2.00562C12.463 2.01116 12.4459 2.02065 12.4314 2.03344C12.4169 2.04624 12.4053 2.06203 12.3974 2.07974C12.3895 2.09744 12.3856 2.11665 12.3857 2.13605V11.5236C12.3857 11.5594 12.3999 11.5936 12.425 11.6189C12.4502 11.6442 12.4843 11.6583 12.5198 11.6583Z" fill="#9F3852"/>
<path d="M12.3857 14.4754V23.863C12.3856 23.8824 12.3895 23.9016 12.3974 23.9193C12.4053 23.937 12.4169 23.9528 12.4314 23.9656C12.4459 23.9784 12.463 23.9879 12.4815 23.9934C12.5 23.999 12.5195 24.0004 12.5386 23.9977C14.9323 23.6696 17.153 22.5628 18.8613 20.8466C20.5695 19.1303 21.6711 16.8992 21.9977 14.4943C22.0004 14.4751 21.9989 14.4555 21.9934 14.4369C21.9879 14.4183 21.9784 14.4012 21.9657 14.3866C21.953 14.372 21.9373 14.3603 21.9196 14.3524C21.902 14.3445 21.8829 14.3405 21.8636 14.3407H12.5198C12.4843 14.3407 12.4502 14.3549 12.425 14.3802C12.3999 14.4054 12.3857 14.4397 12.3857 14.4754Z" fill="#0A8577"/>
<path d="M9.71599 2.13721C9.71615 2.11794 9.7122 2.09886 9.70439 2.08126C9.69659 2.06366 9.68512 2.04794 9.67076 2.03517C9.6564 2.02241 9.63948 2.01288 9.62114 2.00724C9.6028 2.0016 9.58348 1.99998 9.56446 2.00249C6.91562 2.36284 4.48667 3.67593 2.72794 5.6983C0.969209 7.72067 0 10.3151 0 13.0007C0 15.6862 0.969209 18.2807 2.72794 20.3031C4.48667 22.3254 6.91562 23.6385 9.56446 23.9989C9.58348 24.0014 9.6028 23.9998 9.62114 23.9941C9.63948 23.9885 9.6564 23.979 9.67076 23.9662C9.68512 23.9534 9.69659 23.9377 9.70439 23.9201C9.7122 23.9025 9.71615 23.8834 9.71599 23.8642V2.13721Z" fill="#FBBE37"/>
</svg>
